<svg xmlns="http://www.w3.org/2000/svg" width="64" height="64" viewBox="0 0 64 64" aria-hidden="true" role="img">
  <rect width="64" height="64" rx="8" fill="#f1f5f9" />
  <g fill="#94a3b8">
    <rect x="14" y="22" width="16" height="28" rx="1" />
    <rect x="34" y="16" width="16" height="34" rx="1" />
    <rect x="17" y="26" width="3" height="3" fill="#f1f5f9" />
    <rect x="24" y="26" width="3" height="3" fill="#f1f5f9" />
    <rect x="17" y="32" width="3" height="3" fill="#f1f5f9" />
    <rect x="24" y="32" width="3" height="3" fill="#f1f5f9" />
    <rect x="17" y="38" width="3" height="3" fill="#f1f5f9" />
    <rect x="24" y="38" width="3" height="3" fill="#f1f5f9" />
    <rect x="37" y="20" width="3" height="3" fill="#f1f5f9" />
    <rect x="44" y="20" width="3" height="3" fill="#f1f5f9" />
    <rect x="37" y="26" width="3" height="3" fill="#f1f5f9" />
    <rect x="44" y="26" width="3" height="3" fill="#f1f5f9" />
    <rect x="37" y="32" width="3" height="3" fill="#f1f5f9" />
    <rect x="44" y="32" width="3" height="3" fill="#f1f5f9" />
    <rect x="37" y="38" width="3" height="3" fill="#f1f5f9" />
    <rect x="44" y="38" width="3" height="3" fill="#f1f5f9" />
  </g>
</svg>
