<?xml version="1.0" encoding="utf-8"?>
<!-- Generator: Adobe Illustrator 19.0.0, SVG Export Plug-In . SVG Version: 6.00 Build 0)  -->
<svg version="1.1" id="Ebene_1" xmlns="http://www.w3.org/2000/svg" xmlns:xlink="http://www.w3.org/1999/xlink" x="0px" y="0px"
	 viewBox="42 -18.1 85 39.1" style="enable-background:new 42 -18.1 85 39.1;" xml:space="preserve">
<style type="text/css">
	.st0{fill:#CB1214;}
	.st1{fill:#333C40;}
</style>
<path class="st0" d="M80.3-17.7h-8.9v13.4C76.5-6.1,80.3-11.4,80.3-17.7"/>
<g>
	<path class="st1" d="M42,12.3c0,4.6,3.7,8.3,8.3,8.3l14.7,0v-7.7H49.7V4.4h12.8v-7.7H49.7v0V-10H65v-7.7H42V12.3z"/>
	<path class="st1" d="M71.3,4.6v15.9H79V4h12.8v-7.7l-12.1,0C75-3.7,71.3,0.1,71.3,4.6z"/>
	<path class="st1" d="M82-10h13.1v-7.7H83.7C83.7-14.9,83.1-12.3,82-10z"/>
	<path class="st1" d="M119.4,0.2v12.8c0,0-0.9,0.4-3.8,0.4c-6.4,0-9.8-4.7-9.8-11.9c0-7.2,3.4-11.9,9.8-11.9c5.1,0,7.7,1.7,7.7,1.7
		l3-6.8c0,0-3.8-2.6-10.6-2.6c-11.5,0-17.4,8.5-17.4,19.6s6,19.6,17.4,19.6c8.5,0,11.5-3,11.5-3V0.2H119.4z"/>
</g>
</svg>
