<svg id="layout" xmlns="http://www.w3.org/2000/svg" viewBox="0 0 347 68">
  <defs>
    <style>
      .cls-1 {
        fill: #fff;
      }
    </style>
  </defs>
  <title>logo</title>
  <g>
    <path class="cls-1" d="M9.66,8.28H4.18V7.36H20c8.26,0,14.64,2.86,14.64,10.84C34.62,26,27.25,29,20.54,29a14.09,14.09,0,0,1-5.24-.93V45.51H21v.92H4.18v-.92H9.66ZM15.3,26.94a8.13,8.13,0,0,0,4.3,1.19c3.66,0,9-1.94,9-9.45,0-7.27-3.33-10.4-9.92-10.4H15.3Z"/>
    <path class="cls-1" d="M42.33,8.28H36.8V7.36h17c6.36,0,13.3,1.46,13.3,9.84,0,6.75-7.81,8.53-11.87,9v.09c6.39.57,9.77,1.94,10.59,9.26l.81,6.78c.37,3.28,1.92,3.48,2.85,3.48a6,6,0,0,0,2.27-.54l.34.74a13.23,13.23,0,0,1-4.55.71c-6.76,0-7.14-3.59-7.92-10l-.41-3.33c-.38-3.51-1.38-6.66-7.65-6.66H48V45.51h5.67v.92H36.8v-.92h5.53ZM48,25.91h2.79c6.53,0,10.34-2.3,10.34-8.71,0-4.45-1.47-8.92-9.33-8.92H48Z"/>
    <path class="cls-1" d="M94,33.79H82.14l-2.25,7A10.82,10.82,0,0,0,79,44.17c0,.75.67,1.34,2.44,1.34h2.88v.92H73v-.92h1.78c1.69,0,2.41-.14,3.48-3.26L90.13,6.49h.62l13.49,39h4.62v.92H92.6v-.92H98ZM88,16.07h-.08L82.48,32.88H93.74Z"/>
    <path class="cls-1" d="M115.24,8.28h-5.3V7.36H127.3c14.77,0,18.9,12.17,18.9,19.54,0,12.08-7.46,19.53-18.84,19.53H109.94v-.92h5.3Zm5.64,37.23h4.75c5,0,14.26-1.87,14.26-18.61,0-9.5-2.73-18.62-16.31-18.62h-2.7Z"/>
    <path class="cls-1" d="M165.91,33.79H154l-2.27,7a11.71,11.71,0,0,0-.85,3.39c0,.75.68,1.34,2.46,1.34h2.87v.92H144.8v-.92h1.8c1.73,0,2.45-.14,3.51-3.26L162,6.49h.61l13.46,39h4.6v.92H164.45v-.92h5.46Zm-6-17.72h-.13l-5.41,16.81h11.26Z"/>
    <path class="cls-1" d="M225.64,34.79h-5.11v-.91H236v.91h-4.4v6.59c-1.87,1.47-6.53,5.93-14.91,5.93-9.92,0-17.53-7.33-17.53-20.41,0-11.36,8.13-20.41,17.53-20.41,6.1,0,8.79,3.77,10.65,3.77,1.67,0,1.93-1.38,1.93-2.78h.88V19.34h-.88a12.93,12.93,0,0,0-12.58-12c-9.86,0-11.19,12.25-11.19,19.54s1.33,19.53,11.19,19.53c5.33,0,8.92-1.72,8.92-6.78Z"/>
    <path class="cls-1" d="M242.1,24.58h-4.65v-.91h4.65c1.78,0,3.58-.09,4.67-1.2V29h.11c.67-2.47,2.6-6.52,7.16-6.52a3.37,3.37,0,0,1,3.64,3.26,2.4,2.4,0,0,1-2.54,2.6,2.12,2.12,0,0,1-2.43-2.42,2.64,2.64,0,0,1,1.23-2.39,1.2,1.2,0,0,0-.8-.19c-2.26,0-6.37,3.61-6.37,10.85V45.51h5v.92H237.45v-.92h4.65Z"/>
    <path class="cls-1" d="M271.63,22.47c7.17,0,11.75,5.93,11.75,12.32S278.8,47.1,271.63,47.1s-11.75-5.93-11.75-12.31S264.47,22.47,271.63,22.47Zm6.43,10.12c0-4.79-.2-9.26-6.43-9.26s-6.42,4.47-6.42,9.26v4.34c0,4.84.2,9.25,6.42,9.25s6.43-4.41,6.43-9.25Z"/>
    <path class="cls-1" d="M290.89,24.58h-4.43v-.91h4.43c1.75,0,3.55-.09,4.65-1.2V42.31c0,2.4,1.33,3.87,3.43,3.87,3.87,0,7.32-4.34,7.32-8.46V24.58h-4.37v-.91h4.37c1.8,0,3.55-.09,4.67-1.2v23h4.45v.92h-9.12v-5h-.12c-.48,1.27-2.8,5.72-7.72,5.72-5.57,0-7.56-2.93-7.56-6.18Z"/>
    <path class="cls-1" d="M320.73,24.58h-3.84v-.91h3.84c1.75,0,3.55-.09,4.67-1.2v5.66h.09c1-2.61,3.66-5.66,7.66-5.66,6.64,0,11,6.85,11,12.32,0,6.47-4.49,12.31-11.45,12.31a8.34,8.34,0,0,1-7.25-4.73h-.09V60.5h4.27v.92H316.89V60.5h3.84Zm4.67,13.86a7.53,7.53,0,0,0,7.34,7.74c5.45,0,6.12-3.14,6.12-11.39,0-7.6-.82-11.46-5.71-11.46-4.62,0-7.75,4.58-7.75,8.6Z"/>
  </g>
</svg>
