<?xml version="1.0" encoding="utf-8"?>
<!-- Generator: Adobe Illustrator 27.5.0, SVG Export Plug-In . SVG Version: 6.00 Build 0)  -->
<svg version="1.1" id="Livello_1" xmlns="http://www.w3.org/2000/svg" xmlns:xlink="http://www.w3.org/1999/xlink" x="0px" y="0px"
	 viewBox="0 0 138 62" style="enable-background:new 0 0 138 62;" xml:space="preserve">
<style type="text/css">
	.st0{fill-rule:evenodd;clip-rule:evenodd;fill:#4E4B48;}
</style>
<path class="st0" d="M24.6,28.9c0,0.1,0,0.1,0,0.2c-0.1,1-0.4,1.8-0.8,2.4c0,0,0,0,0,0.1c-0.2,0.3-0.4,0.6-0.7,0.8
	c-0.2,0.2-0.5,0.4-0.8,0.5c-0.3,0.1-0.6,0.2-1,0.2h-3l0-21l3,0c0.4,0,0.8,0.1,1.1,0.3c0.4,0.2,0.7,0.6,0.9,1c0.2,0.5,0.4,1,0.5,1.7
	c0.1,0.7,0.2,1.4,0.2,2.2c0,0.5,0,1-0.1,1.4c0,0.4-0.1,0.8-0.2,1.3c-0.2,0.7-0.7,1.4-0.9,1.6c0.3,0.1,1.9,2.4,1.9,5.4
	C24.7,27.7,24.7,28.3,24.6,28.9 M27.8,22.9c1.8,1.1,2.7,2.8,2.7,4.9c0,1.9-0.9,3.4-2.6,4.6c-1.7,1.2-4.1,1.8-6.9,1.8H10v-0.9
	c0.9,0,1.6-0.2,2-0.4c0.7-0.4,1-1,1-2V14.3c0-1-0.3-1.7-0.9-2c-0.4-0.2-1.1-0.3-2-0.4V11h10.5c2,0,3.7,0.2,5,0.7
	c2.5,0.9,3.8,2.5,3.8,4.8c0,1.4-0.5,2.7-1.5,3.5c-1,0.8-2.1,1.3-3.3,1.6C25.7,21.9,26.8,22.3,27.8,22.9z M116.1,33.3
	c0.9,0,1.6-0.1,2-0.3c0.7-0.3,1-1,1-2V15c0-1-0.3-1.6-1-1.9c-0.4-0.2-1.1-0.3-2.1-0.4v-0.8h11.6v0.8c-1,0-1.7,0.2-2.1,0.4
	c-0.6,0.3-1,1-1,2v16c0,0.9,0.3,1.5,0.8,1.9c0.5,0.3,1.3,0.5,2.3,0.5v0.8h-11.6V33.3L116.1,33.3z M50.5,29.4
	c0.5-1.6,0.8-3.8,0.8-6.4c0-3.6-0.5-6.3-1.6-8.1c-1.1-1.8-2.5-2.7-4.4-2.7c-2.6,0-4.3,1.5-5.3,4.6c-0.5,1.6-0.7,3.7-0.7,6.3
	c0,2.6,0.3,4.8,0.8,6.4c0.9,3,2.7,4.5,5.3,4.5C47.8,33.9,49.5,32.4,50.5,29.4z M53.7,14.3c2.3,2.3,3.5,5.2,3.5,8.7s-1.2,6.5-3.5,8.7
	c-2.3,2.2-5.1,3.3-8.5,3.3c-3.6,0-6.6-1.2-8.9-3.6c-2.1-2.3-3.2-5-3.2-8.2c0-3.5,1.1-6.5,3.3-8.7c2.3-2.3,5.2-3.5,8.7-3.5
	C48.6,11,51.5,12.1,53.7,14.3z M103,23.6h10.4v0.9c0,0-0.2,0.1-0.4,0.2c-0.2,0.1-0.5,0.3-0.7,0.5c-0.1,0.1-0.2,0.3-0.3,0.6
	c-0.2,0.5-0.3,1.1-0.3,1.8v0.8c-0.4,0.8-0.8,1.5-1.3,2.2c-0.3,0.4-0.6,0.8-1,1.1c-2.2,2.2-5,3.3-8.3,3.3v0l0,0l0,0
	c-0.1,0-0.1,0-0.2,0v0c-3.4-0.1-6.2-1.3-8.4-3.6c-2.1-2.3-3.1-5-3.1-8.3c0-3.5,1.1-6.5,3.3-8.8l0,0c0-0.1,0.1-0.1,0.2-0.1
	c0.2-0.2,0.4-0.4,0.6-0.6c2.1-1.8,4.6-2.7,7.6-2.7c1.4,0,2.8,0.3,4.1,0.8c1.4,0.5,2.2,0.8,2.6,0.8c0.4,0,0.6-0.1,0.9-0.4
	c0.2-0.3,0.4-0.6,0.5-1.2h0.8v6.6H109c-0.8-0.9-1.5-1.9-2.2-2.6c-0.1-0.1-0.2-0.2-0.2-0.3c-0.7-0.6-1.2-1.2-1.8-1.6
	c-1-0.7-2.2-1-3.3-1c-2.2,0-3.7,1-4.7,2.9c-1,1.9-1.5,4.6-1.5,8.1c0,2.8,0.5,5.4,1.4,7.6c0.7,1.6,1.8,2.6,3.3,3.1
	c0.4,0.1,0.8,0.1,1.3,0.1c1.7,0,3.1-0.8,4-2.2c0.4-0.6,0.8-1.4,1-2.3c0.1-0.3,0.2-0.9,0.2-1c0-0.1,0.7-2.7-0.9-3.6
	c-0.1,0-0.1-0.1-0.2-0.1c-0.2-0.1-0.3-0.2-2.3-0.2C103,24.5,103,23.6,103,23.6z M75.3,23.6h10.4v0.9c0,0-0.2,0.1-0.4,0.2
	c-0.2,0.1-0.5,0.3-0.7,0.5c-0.1,0.1-0.2,0.3-0.3,0.6c-0.2,0.5-0.3,1.1-0.3,1.8l0,0.8c-0.4,0.8-0.8,1.5-1.3,2.2
	c-0.3,0.4-0.6,0.8-1,1.1c-2.2,2.2-5,3.3-8.3,3.3v0l0,0l0,0c-0.1,0-0.1,0-0.2,0v0c-3.4-0.1-6.2-1.3-8.4-3.6c-2.1-2.3-3.1-5-3.1-8.3
	c0-3.5,1.1-6.5,3.3-8.8l0,0c0-0.1,0.1-0.1,0.2-0.1c0.2-0.2,0.4-0.4,0.6-0.6c2.1-1.8,4.6-2.7,7.6-2.7c1.4,0,2.8,0.3,4.1,0.8
	c1.4,0.5,2.2,0.8,2.6,0.8c0.4,0,0.6-0.1,0.9-0.4c0.2-0.3,0.4-0.6,0.5-1.2h0.8v6.6h-0.8c-0.8-0.9-1.5-1.9-2.2-2.6
	C79,15,79,14.9,78.9,14.8c-0.7-0.6-1.2-1.2-1.8-1.6c-1-0.7-2.2-1-3.3-1c-2.2,0-3.7,1-4.7,2.9c-1,1.9-1.5,4.6-1.5,8.1
	c0,2.8,0.5,5.4,1.4,7.6c0.7,1.6,1.8,2.6,3.3,3.1c0.4,0.1,0.8,0.1,1.3,0.1c1.7,0,3.1-0.8,4-2.2c0.4-0.6,0.8-1.4,1-2.3
	c0.1-0.3,0.2-0.9,0.2-1c0-0.1,0.7-2.7-0.9-3.6c-0.1,0-0.1-0.1-0.2-0.1c-0.2-0.1-0.3-0.2-2.3-0.2C75.3,24.5,75.3,23.6,75.3,23.6z
	 M91.1,49c0.3,0,0.5-0.1,0.6-0.2c0.1-0.1,0.1-0.3,0.1-0.5v-3.6c-0.1-0.2-0.3-0.3-0.4-0.5c-0.1-0.1-0.1-0.1-0.2-0.1V44h1.7l2.7,3.2h0
	v-2.3c0-0.3,0-0.4-0.1-0.6c-0.1-0.1-0.3-0.2-0.6-0.2V44h1.7v0.2c-0.2,0-0.4,0.1-0.5,0.2c-0.1,0.1-0.1,0.2-0.1,0.5v4.5h-0.2l-3.4-4.1
	h-0.1v3c0,0.2,0,0.4,0.1,0.5c0.1,0.2,0.3,0.2,0.6,0.3v0.2h-1.8C91.1,49.2,91.1,49,91.1,49z M77.1,47.5l-0.8-1.8h-0.1l-0.7,1.8H77.1
	L77.1,47.5z M74.2,49.1c0.2,0,0.4-0.1,0.5-0.3c0.1-0.1,0.2-0.3,0.3-0.7l1.7-4.2h0.2l1.8,4.1c0.2,0.5,0.3,0.8,0.4,0.9
	c0.1,0.1,0.3,0.2,0.4,0.2v0.2H77v-0.2c0.3,0,0.4,0,0.5-0.1c0.1,0,0.1-0.1,0.1-0.2c0-0.1,0-0.2-0.1-0.3c0-0.1-0.1-0.2-0.1-0.3
	l-0.2-0.5h-1.8c-0.1,0.3-0.2,0.5-0.2,0.6c-0.1,0.2-0.1,0.3-0.1,0.4c0,0.1,0.1,0.2,0.2,0.2c0.1,0,0.2,0,0.4,0v0.2h-1.6L74.2,49.1
	L74.2,49.1z M57.2,49.1c0.2,0,0.4,0,0.5-0.1c0.2-0.1,0.3-0.2,0.3-0.5v-3.8c0-0.2-0.1-0.4-0.2-0.5c-0.1,0-0.3-0.1-0.5-0.1V44h3v0.2
	c-0.3,0-0.6,0.1-0.7,0.1c-0.1,0.1-0.2,0.3-0.2,0.6v3.7c0,0.2,0,0.3,0.2,0.3c0.1,0.1,0.3,0.1,0.6,0.1c0.5,0,1-0.1,1.3-0.3
	c0.4-0.2,0.7-0.6,0.9-1.2h0.3l-0.3,1.8h-5C57.2,49.3,57.2,49.1,57.2,49.1z M43,49.1c0.2,0,0.4,0,0.5-0.1c0.2-0.1,0.2-0.2,0.2-0.5
	v-3.8c0-0.2-0.1-0.4-0.2-0.5c-0.1,0-0.2-0.1-0.5-0.1V44h2.7v0.2c-0.2,0-0.4,0-0.5,0.1c-0.2,0.1-0.2,0.2-0.2,0.5v3.8
	c0,0.2,0.1,0.4,0.2,0.4c0.1,0.1,0.3,0.1,0.5,0.1v0.2H43C43,49.3,43,49.1,43,49.1z M24.3,49.1c0.3,0,0.5-0.1,0.6-0.2
	c0.1-0.1,0.1-0.3,0.1-0.5v-3.8c0-0.2-0.1-0.4-0.2-0.4s-0.3-0.1-0.5-0.1V44h2l1.5,3.7h0.1l1.5-3.7h2v0.2c-0.3,0-0.4,0.1-0.5,0.1
	c-0.1,0.1-0.1,0.3-0.1,0.6v3.5c0,0.3,0,0.5,0.1,0.6c0.1,0.1,0.3,0.1,0.5,0.2v0.2h-2.6v-0.2c0.2,0,0.4,0,0.5-0.1
	c0.1-0.1,0.2-0.2,0.2-0.5v-3.9h-0.1l-1.9,4.7h-0.2l-1.9-4.6h0v3.6c0,0.3,0,0.5,0.1,0.6c0.1,0.1,0.3,0.2,0.6,0.2v0.2h-1.8
	C24.3,49.3,24.3,49.1,24.3,49.1z M112.5,47.9c0.1-0.4,0.2-0.9,0.2-1.6c0-0.9-0.1-1.5-0.4-2c-0.3-0.4-0.6-0.7-1.1-0.7
	c-0.6,0-1.1,0.4-1.3,1.1c-0.1,0.4-0.2,0.9-0.2,1.5c0,0.6,0.1,1.2,0.2,1.6c0.2,0.7,0.7,1.1,1.3,1.1C111.8,49,112.3,48.7,112.5,47.9z
	 M113.3,44.2c0.6,0.6,0.9,1.3,0.9,2.1c0,0.9-0.3,1.6-0.9,2.1c-0.6,0.5-1.2,0.8-2.1,0.8c-0.9,0-1.6-0.3-2.2-0.9
	c-0.5-0.6-0.8-1.2-0.8-2c0-0.9,0.3-1.6,0.8-2.1c0.6-0.6,1.3-0.8,2.1-0.8C112,43.4,112.7,43.7,113.3,44.2z"/>
</svg>
