<svg xmlns="http://www.w3.org/2000/svg" viewBox="0 0 64 64" role="img" aria-label="BP"><rect width="64" height="64" rx="14" fill="#ffffff"/><g transform="translate(32 32)"><g fill="#009900"><path d="M0-22l3 7-3 3-3-3z"/><path d="M0 22l-3-7 3-3 3 3z"/><path d="M22 0l-7 3-3-3 3-3z"/><path d="M-22 0l7-3 3 3-3 3z"/><path d="M15.6-15.6l-2 7-4 1-1-4z"/><path d="M-15.6 15.6l2-7 4-1 1 4z"/><path d="M15.6 15.6l-7-2-1-4 4-1z"/><path d="M-15.6-15.6l7 2 1 4-4 1z"/></g><circle r="9" fill="#FFE600"/><circle r="5" fill="#009900"/></g></svg>
