<?xml version="1.0" encoding="UTF-8"?> <!-- Generator: Adobe Illustrator 24.0.2, SVG Export Plug-In . SVG Version: 6.00 Build 0) --> <svg xmlns="http://www.w3.org/2000/svg" xmlns:xlink="http://www.w3.org/1999/xlink" id="Livello_1" x="0px" y="0px" viewBox="0 0 366.28 44.89" style="enable-background:new 0 0 366.28 44.89;" xml:space="preserve"> <style type="text/css"> .st0{clip-path:url(#SVGID_2_);} .st1{clip-path:url(#SVGID_2_);fill:none;stroke:#000000;stroke-width:0.05;} </style> <g> <defs> <rect id="SVGID_1_" x="2.66" y="2.86" width="360.97" height="39.16"></rect> </defs> <clipPath id="SVGID_2_"> <use xlink:href="#SVGID_1_" style="overflow:visible;"></use> </clipPath> <path class="st0" d="M34.48,22.09c0.08-6.49-1.9-11-5.3-14.28c-1.69-1.63-4.22-3.01-6.52-3.57c-1.71-0.41-3.55-0.65-6.38-0.65 c0.01,0-9.12,0.15-9.46,0.15c-0.34,0-3.56-0.11-3.56-0.11L3.22,4.71c0.95,0,1.13-0.04,2.07-0.01C6.8,4.74,6.95,5.62,6.95,6.37 c0,0.39,0.04,4.33,0.04,4.33l0.08,25.42c0,0-0.04,1.54-0.11,2.04c-0.08,0.57-0.09,2.03-2.21,2.09c-0.35,0.01-1.15,0.02-2.1,0v0.91 c0,0,4.31-0.24,5.91-0.2c1.91,0.04,8.29,0.25,8.29,0.25s1.86-0.04,2.53-0.11c6.09-0.59,8.92-3.73,9.99-4.86 C34.91,30.38,34.48,22.09,34.48,22.09 M25.31,33.89c-0.28,0.42-3.37,5.78-9.25,6.19c-0.34,0.02-1.4,0.02-1.4,0.02 s-0.89-0.02-0.89-0.02c0,0-1.08,0.03-1.08-1.02l0-33.37c0-0.43,0.3-0.85,0.78-0.91c0.4-0.05,1.39-0.07,2.78,0.01 c0,0,4.37-0.08,7.47,3.18c0.32,0.34,2.31,2.12,3.63,6.08c0.53,1.58,1.27,4.69,1.24,7.64C28.59,22.5,28.77,28.73,25.31,33.89"></path> <path class="st0" d="M192.43,40.24c-2.12-0.06-2.12-1.72-2.21-2.29c-0.07-0.5-0.11-1.83-0.11-1.83l0.08-25.42 c0,0,0.04-3.33,0.04-3.73c0-0.75,0.36-2.23,1.87-2.28c0.94-0.03,1.11,0.02,2.07,0.02l-0.04-1.09c0,0-3.42,0.11-3.76,0.11h-5.9 c-0.34,0-3.76-0.11-3.76-0.11l-0.04,1.09c0.96,0,1.13-0.04,2.07-0.02c1.51,0.05,1.87,1.53,1.87,2.28c0,0.4,0.04,3.73,0.04,3.73 l0.07,25.42c0,0-0.04,1.33-0.11,1.83c-0.08,0.57-0.09,2.23-2.21,2.29c-0.35,0.01-1.15,0.02-2.1,0v0.91c0,0,5.54-0.05,7.13-0.02 h0.34c1.6-0.03,6.75,0.02,6.75,0.02v-0.91C193.58,40.26,192.78,40.25,192.43,40.24"></path> <path class="st0" d="M113.78,40.24c-2.12-0.06-2.12-1.72-2.21-2.29c-0.07-0.5-0.11-1.83-0.11-1.83l0.08-25.42 c0,0,0.04-3.33,0.04-3.73c0-0.75,0.36-2.23,1.87-2.28c0.94-0.03,1.11,0.02,2.07,0.02l-0.04-1.09c0,0-3.42,0.11-3.76,0.11h-5.9 c-0.34,0-3.76-0.11-3.76-0.11l-0.04,1.09c0.96,0,1.13-0.04,2.07-0.02c1.51,0.05,1.87,1.53,1.87,2.28c0,0.4,0.04,3.73,0.04,3.73 l0.08,25.42c0,0-0.04,1.33-0.11,1.83c-0.08,0.57-0.09,2.23-2.21,2.29c-0.34,0.01-1.15,0.02-2.09,0v0.91c0,0,5.54-0.05,7.13-0.02 h0.34c1.6-0.03,6.75,0.02,6.75,0.02v-0.91C114.93,40.26,114.13,40.25,113.78,40.24"></path> <path class="st0" d="M69.2,37.72V8.8l10.31,30.98h0.88L89.48,8.3l0.08,27.82c0,0-0.04,1.33-0.11,1.83 c-0.08,0.57-0.09,2.23-2.21,2.29c-0.35,0.01-1.15,0.02-2.1,0v0.91c0,0,5.54-0.05,7.13-0.02h0.34c1.6-0.03,6.75,0.02,6.75,0.02 v-0.91c-0.95,0.02-1.75,0.01-2.1,0c-2.12-0.06-2.12-1.72-2.21-2.29c-0.07-0.5-0.11-1.83-0.11-1.83l0.08-25.42 c0,0,0.04-3.33,0.04-3.72c0-0.75,0.36-2.23,1.87-2.28c0.93-0.03,1.11,0.02,2.07,0.02l-0.04-1.09c0,0-3.42,0.11-3.76,0.11 c-1.93,0-5.5-0.16-5.5-0.16l-7.77,27.18l-8.62-27.1c0,0-6.24,0.2-9.37-0.07v1.08c0,0,1.52-0.07,2.46,0.25 c0.97,0.33,1.79,1.11,1.79,3.34c0,1.45,0.03,1.42,0.03,1.42v28l-0.01,0.17c-0.08,0.57-0.25,2.34-2.37,2.4 c-0.35,0.01-0.94,0.02-1.89,0v0.91c0,0,5.33-0.05,6.93-0.02h0.34c1.6-0.03,3.11,0.02,3.11,0.02v-0.91c-0.95,0.02-2.56,0.01-2.9,0 c-2.12-0.06-2.13-1.77-2.21-2.34L69.2,37.72z"></path> <path class="st0" d="M169.39,3.57c0,0,3.57,0.16,5.5,0.16c0.34,0,3.96-0.11,3.96-0.11l0.03,1.01c-0.96,0-1.53,0-2.26,0.06 c-1.5,0.13-1.87,1.53-1.87,2.28c0,0.39-0.04,3.72-0.04,3.72l-0.08,31.05h-0.49l-12.19-19.67l-8.82-13.69v29.33l0.01,0.18 c0.08,0.57,0.1,2.28,2.21,2.34c0.35,0.01,1.15,0.02,2.1,0v0.91c0,0-0.7-0.05-2.3-0.02h-0.34c-1.6-0.03-7.14,0.02-7.14,0.02v-0.91 c0.95,0.02,1.75,0.01,2.1,0c2.12-0.06,2.29-1.84,2.37-2.41l0.01-0.17v-28c0,0-0.03,0.03-0.03-1.42c0-2.23-0.82-3.01-1.79-3.34 c-0.94-0.32-2.67-0.25-2.67-0.25V3.57c3.12,0.27,9.57,0.07,9.57,0.07l16.39,25.88V6.73c0,0,0.08-2.09-2.17-2.09h-2.09L169.39,3.57z "></path> <path class="st0" d="M120.26,38.9c-0.42,0.75-1.12,1.11-1.82,1.3c-0.7,0.2-1.42,0.15-1.42,0.15v0.87c0,0,2.46-0.1,3.95-0.1 c1.49,0,4.71,0.07,4.71,0.07v-0.84l-2.31-0.17c-1.88-0.3-1.31-1.95-1.31-1.95l2.83-10.58l8.23,0.02c0,0,2.44,8.45,3.02,10.39 c0.64,2.16-1.22,2.1-1.69,2.14c-0.47,0.04-1.49,0.11-1.49,0.11c-0.13,0-0.85,0.04-0.88,0.04v0.86l2.75-0.08h0.2 c0,0,2.35-0.03,4.64-0.03c2.29,0,6.83,0.11,6.83,0.11v-0.92c-0.95,0.02-1.62,0-1.96-0.06c-0.86-0.15-1.63-0.98-1.63-0.98 c-0.8-0.79-1.14-1.73-1.33-2.28c-0.19-0.55-10.46-33.99-10.46-33.99h-0.57c0,0-8.16,30.38-8.54,31.58 C121.63,35.75,121.14,37.32,120.26,38.9 M125.12,26.35l3.79-13.41l3.87,13.41H125.12z"></path> <path class="st0" d="M36.69,38.83c-0.42,0.75-1.12,1.11-1.82,1.3c-0.7,0.2-1.42,0.15-1.42,0.15v0.87c0,0,2.46-0.1,3.95-0.1 c1.49,0,4.71,0.07,4.71,0.07v-0.84l-2.31-0.17c-1.88-0.3-1.31-1.95-1.31-1.95l2.83-10.58l8.23,0.02c0,0,2.44,8.45,3.02,10.39 c0.64,2.16-1.22,2.1-1.69,2.14c-0.47,0.04-1.49,0.11-1.49,0.11c-0.13,0-0.85,0.04-0.88,0.04v0.86l2.75-0.08h0.2 c0,0,2.35-0.03,4.64-0.03c2.29,0,6.83,0.11,6.83,0.11v-0.93c-0.95,0.02-1.62,0-1.96-0.06c-0.86-0.15-1.63-0.98-1.63-0.98 c-0.8-0.79-1.14-1.72-1.33-2.28C57.84,36.34,47.56,2.9,47.56,2.9h-0.57c0,0-8.16,30.38-8.54,31.58 C38.07,35.68,37.58,37.25,36.69,38.83 M41.56,26.28l3.79-13.41l3.87,13.41H41.56z"></path> <path class="st0" d="M239.13,36.24c-1.87,1.89-3.81,3.32-5.84,4.29c-2.03,0.97-4.11,1.46-6.23,1.46c-4.71,0-8.48-1.75-11.33-5.26 c-2.84-3.5-4.26-8.18-4.26-14.03c0-3.17,0.43-6.01,1.29-8.53c0.86-2.52,2.14-4.69,3.86-6.51c1.42-1.55,2.99-2.73,4.72-3.54 c1.72-0.81,3.48-1.22,5.27-1.22c0.81,0,1.61,0.09,2.41,0.28c0.79,0.19,1.57,0.47,2.32,0.86c0.66,0.31,1.47,0.86,2.42,1.63 c0.95,0.77,1.59,1.15,1.92,1.15c0.48,0,0.85-0.2,1.11-0.59c0.26-0.4,0.39-0.97,0.39-1.73V4.11h0.66v11.42h-0.71 c-0.39-3.58-1.52-6.44-3.39-8.6c-1.88-2.16-4.16-3.24-6.86-3.24c-3.05,0-5.48,1.58-7.3,4.74c-1.82,3.16-2.72,7.47-2.72,12.91 c0,6.61,0.85,11.56,2.55,14.84c1.7,3.28,4.27,4.92,7.71,4.92c2.31,0,4.06-0.71,5.26-2.12c1.19-1.41,1.79-3.51,1.79-6.29v-2.73 h-3.98v-0.8h12.34v0.8h-3.38V36.24z"></path> <path class="st1" d="M239.13,36.24c-1.87,1.89-3.81,3.32-5.84,4.29c-2.03,0.97-4.11,1.46-6.23,1.46c-4.71,0-8.48-1.75-11.33-5.26 c-2.84-3.5-4.26-8.18-4.26-14.03c0-3.17,0.43-6.01,1.29-8.53c0.86-2.52,2.14-4.69,3.86-6.51c1.42-1.55,2.99-2.73,4.72-3.54 c1.72-0.81,3.48-1.22,5.27-1.22c0.81,0,1.61,0.09,2.41,0.28c0.79,0.19,1.57,0.47,2.32,0.86c0.66,0.31,1.47,0.86,2.42,1.63 c0.95,0.77,1.59,1.15,1.92,1.15c0.48,0,0.85-0.2,1.11-0.59c0.26-0.4,0.39-0.97,0.39-1.73V4.11h0.66v11.42h-0.71 c-0.39-3.58-1.52-6.44-3.39-8.6c-1.88-2.16-4.16-3.24-6.86-3.24c-3.05,0-5.48,1.58-7.3,4.74c-1.82,3.16-2.72,7.47-2.72,12.91 c0,6.61,0.85,11.56,2.55,14.84c1.7,3.28,4.27,4.92,7.71,4.92c2.31,0,4.06-0.71,5.26-2.12c1.19-1.41,1.79-3.51,1.79-6.29v-2.73 h-3.98v-0.8h12.34v0.8h-3.38V36.24z"></path> <path class="st0" d="M256.27,41.19v-0.8h-3.48V22.1h1.66c2.9,0,4.93,0.45,6.11,1.34c1.17,0.89,1.9,2.54,2.18,4.94 c0.11,0.76,0.22,1.84,0.33,3.27c0.33,3.6,0.84,6.03,1.55,7.29c0.53,0.91,1.17,1.58,1.91,2.01c0.73,0.43,1.62,0.65,2.65,0.65 c0.72,0,1.44-0.07,2.18-0.21c0.73-0.14,1.48-0.35,2.24-0.63l-0.28-0.74c-0.31,0.15-0.6,0.25-0.88,0.3 c-0.27,0.06-0.58,0.08-0.93,0.08c-1.59,0-2.55-2.26-2.87-6.79c-0.09-1.09-0.16-1.95-0.22-2.58c-0.31-3.12-1.09-5.38-2.32-6.78 c-1.23-1.4-3.26-2.33-6.09-2.82c3.04-0.33,5.35-1.25,6.94-2.76c1.59-1.51,2.38-3.54,2.38-6.1c0-2.92-0.97-5.13-2.91-6.63 c-1.94-1.5-4.79-2.25-8.57-2.25h-13.79v0.8h3.68V40.4h-3.68v0.8H256.27z M256.18,4.49c2.85,0,4.9,0.67,6.16,2.01 c1.25,1.34,1.88,3.51,1.88,6.51c0,2.78-0.8,4.84-2.4,6.18c-1.6,1.34-4.06,2.01-7.38,2.01h-1.66V4.49H256.18z"></path> <path class="st1" d="M256.27,41.19v-0.8h-3.48V22.1h1.66c2.9,0,4.93,0.45,6.11,1.34c1.17,0.89,1.9,2.54,2.18,4.94 c0.11,0.76,0.22,1.84,0.33,3.27c0.33,3.6,0.84,6.03,1.55,7.29c0.53,0.91,1.17,1.58,1.91,2.01c0.73,0.43,1.62,0.65,2.65,0.65 c0.72,0,1.44-0.07,2.18-0.21c0.73-0.14,1.48-0.35,2.24-0.63l-0.28-0.74c-0.31,0.15-0.6,0.25-0.88,0.3 c-0.27,0.06-0.58,0.08-0.93,0.08c-1.59,0-2.55-2.26-2.87-6.79c-0.09-1.09-0.16-1.95-0.22-2.58c-0.31-3.12-1.09-5.38-2.32-6.78 c-1.23-1.4-3.26-2.33-6.09-2.82c3.04-0.33,5.35-1.25,6.94-2.76c1.59-1.51,2.38-3.54,2.38-6.1c0-2.92-0.97-5.13-2.91-6.63 c-1.94-1.5-4.79-2.25-8.57-2.25h-13.79v0.8h3.68V40.4h-3.68v0.8H256.27z M256.18,4.49c2.85,0,4.9,0.67,6.16,2.01 c1.25,1.34,1.88,3.51,1.88,6.51c0,2.78-0.8,4.84-2.4,6.18c-1.6,1.34-4.06,2.01-7.38,2.01h-1.66V4.49H256.18z"></path> <path class="st0" d="M273.69,29.83c0.68,2.26,1.7,4.29,3.04,6.1c1.51,1.97,3.18,3.48,4.99,4.51c1.82,1.03,3.73,1.55,5.74,1.55 c2.01,0,3.92-0.52,5.74-1.55c1.82-1.03,3.47-2.54,4.97-4.51c1.35-1.79,2.36-3.81,3.03-6.06c0.67-2.25,1.01-4.73,1.01-7.44 c0-2.69-0.34-5.17-1.01-7.43c-0.67-2.26-1.68-4.28-3.03-6.05c-1.5-1.99-3.15-3.5-4.97-4.52c-1.82-1.02-3.73-1.54-5.74-1.54 c-2.01,0-3.92,0.51-5.74,1.54c-1.81,1.02-3.48,2.53-4.99,4.52c-1.35,1.79-2.36,3.81-3.04,6.08c-0.68,2.26-1.02,4.72-1.02,7.4 C272.66,25.11,273.01,27.57,273.69,29.83 M280.54,8.67c1.67-3.31,3.98-4.97,6.92-4.97c2.91,0,5.2,1.65,6.87,4.95 c1.67,3.3,2.5,7.89,2.5,13.78c0,5.9-0.83,10.48-2.49,13.76c-1.66,3.28-3.96,4.92-6.88,4.92c-2.95,0-5.26-1.65-6.92-4.95 c-1.67-3.3-2.5-7.87-2.5-13.73C278.04,16.57,278.87,11.98,280.54,8.67"></path> <path class="st1" d="M273.69,29.83c0.68,2.26,1.7,4.29,3.04,6.1c1.51,1.97,3.18,3.48,4.99,4.51c1.82,1.03,3.73,1.55,5.74,1.55 c2.01,0,3.92-0.52,5.74-1.55c1.82-1.03,3.47-2.54,4.97-4.51c1.35-1.79,2.36-3.81,3.03-6.06c0.67-2.25,1.01-4.73,1.01-7.44 c0-2.69-0.34-5.17-1.01-7.43c-0.67-2.26-1.68-4.28-3.03-6.05c-1.5-1.99-3.15-3.5-4.97-4.52c-1.82-1.02-3.73-1.54-5.74-1.54 c-2.01,0-3.92,0.51-5.74,1.54c-1.81,1.02-3.48,2.53-4.99,4.52c-1.35,1.79-2.36,3.81-3.04,6.08c-0.68,2.26-1.02,4.72-1.02,7.4 C272.66,25.11,273.01,27.57,273.69,29.83 M280.54,8.67c1.67-3.31,3.98-4.97,6.92-4.97c2.91,0,5.2,1.65,6.87,4.95 c1.67,3.3,2.5,7.89,2.5,13.78c0,5.9-0.83,10.48-2.49,13.76c-1.66,3.28-3.96,4.92-6.88,4.92c-2.95,0-5.26-1.65-6.92-4.95 c-1.67-3.3-2.5-7.87-2.5-13.73C278.04,16.57,278.87,11.98,280.54,8.67"></path> <path class="st0" d="M308.15,4.49h-3.78v-0.8h13.03v0.8h-4.08v24.73c0,2.56,0.08,4.36,0.23,5.39c0.15,1.03,0.43,1.88,0.82,2.54 c0.64,1.11,1.6,1.96,2.88,2.56c1.28,0.6,2.79,0.9,4.56,0.9c1.91,0,3.55-0.33,4.92-1c1.37-0.66,2.5-1.67,3.38-3.04 c0.53-0.83,0.92-1.76,1.15-2.8c0.24-1.04,0.36-2.71,0.36-5.01V9.24c0-2.3-0.22-3.67-0.66-4.1c-0.44-0.43-1.56-0.65-3.35-0.65h-0.85 v-0.8h9.75v0.8h-0.39c-1.53,0-2.51,0.23-2.94,0.69c-0.43,0.46-0.65,1.83-0.65,4.12v19.23c0,2.61-0.11,4.48-0.34,5.63 c-0.23,1.15-0.61,2.15-1.15,3.02c-1.01,1.6-2.4,2.81-4.16,3.62c-1.76,0.8-3.91,1.21-6.45,1.21c-2.29,0-4.29-0.32-6.01-0.96 c-1.72-0.64-3.09-1.57-4.1-2.79c-0.77-0.94-1.33-2.04-1.65-3.3c-0.33-1.25-0.5-3.36-0.5-6.32V4.49z"></path> <path class="st1" d="M308.15,4.49h-3.78v-0.8h13.03v0.8h-4.08v24.73c0,2.56,0.08,4.36,0.23,5.39c0.15,1.03,0.43,1.88,0.82,2.54 c0.64,1.11,1.6,1.96,2.88,2.56c1.28,0.6,2.79,0.9,4.56,0.9c1.91,0,3.55-0.33,4.92-1c1.37-0.66,2.5-1.67,3.38-3.04 c0.53-0.83,0.92-1.76,1.15-2.8c0.24-1.04,0.36-2.71,0.36-5.01V9.24c0-2.3-0.22-3.67-0.66-4.1c-0.44-0.43-1.56-0.65-3.35-0.65h-0.85 v-0.8h9.75v0.8h-0.39c-1.53,0-2.51,0.23-2.94,0.69c-0.43,0.46-0.65,1.83-0.65,4.12v19.23c0,2.61-0.11,4.48-0.34,5.63 c-0.23,1.15-0.61,2.15-1.15,3.02c-1.01,1.6-2.4,2.81-4.16,3.62c-1.76,0.8-3.91,1.21-6.45,1.21c-2.29,0-4.29-0.32-6.01-0.96 c-1.72-0.64-3.09-1.57-4.1-2.79c-0.77-0.94-1.33-2.04-1.65-3.3c-0.33-1.25-0.5-3.36-0.5-6.32V4.49z"></path> <path class="st0" d="M350.46,41.19v-0.8h-3.58V23.94c0.99,0.32,1.95,0.56,2.86,0.71c0.92,0.15,1.8,0.23,2.65,0.23 c3.36,0,6.06-1,8.12-3.01c2.06-2,3.09-4.63,3.09-7.89c0-3.35-1.07-5.9-3.2-7.66c-2.14-1.76-5.24-2.63-9.33-2.63h-12.94v0.8h3.78 V40.4h-3.78v0.8H350.46z M347.58,4.41c0.3-0.02,0.53-0.03,0.67-0.03c3.53,0,6.18,0.84,7.93,2.53c1.75,1.68,2.64,4.21,2.64,7.59 c0,2.87-0.66,5.16-1.99,6.85c-1.32,1.69-3.09,2.54-5.31,2.54c-0.66,0-1.39-0.08-2.18-0.25c-0.8-0.16-1.62-0.42-2.46-0.78V4.43 C347.04,4.43,347.28,4.42,347.58,4.41"></path> <path class="st1" d="M350.46,41.19v-0.8h-3.58V23.94c0.99,0.32,1.95,0.56,2.86,0.71c0.92,0.15,1.8,0.23,2.65,0.23 c3.36,0,6.06-1,8.12-3.01c2.06-2,3.09-4.63,3.09-7.89c0-3.35-1.07-5.9-3.2-7.66c-2.14-1.76-5.24-2.63-9.33-2.63h-12.94v0.8h3.78 V40.4h-3.78v0.8H350.46z M347.58,4.41c0.3-0.02,0.53-0.03,0.67-0.03c3.53,0,6.18,0.84,7.93,2.53c1.75,1.68,2.64,4.21,2.64,7.59 c0,2.87-0.66,5.16-1.99,6.85c-1.32,1.69-3.09,2.54-5.31,2.54c-0.66,0-1.39-0.08-2.18-0.25c-0.8-0.16-1.62-0.42-2.46-0.78V4.43 C347.04,4.43,347.28,4.42,347.58,4.41"></path> </g> </svg> 