<svg id="Livello_1" data-name="Livello 1" xmlns="http://www.w3.org/2000/svg" viewBox="0 0 767.34 282.05"><defs><style>.cls-1{fill:#f9b000;}.cls-2{fill:#14387f;}.cls-3{fill:#e30613;}.cls-4{fill:#fff;}</style></defs><title>Logo_Medacta</title><polygon class="cls-1" points="0 182.25 0 193.59 765.48 193.59 765.48 182.25 0 182.25 0 182.25"/><polygon class="cls-2" points="106.69 0 106.69 166.32 4.75 166.32 106.69 0 106.69 0"/><polygon class="cls-2" points="208.97 0 208.97 166.32 107.04 166.32 208.97 0 208.97 0"/><path class="cls-2" d="M339.22,276.07c0-28.32-13.72-45.23-36.7-45.23-22.82,0-38.75,19.58-38.75,47.61,0,30.7,14.79,47.61,41.65,47.61a73.46,73.46,0,0,0,26-4.93l1.31-.54V304.45l-3.23,2c-4.58,2.9-15.5,6.15-23.24,6.15-15.49,0-25.61-11.36-26.38-29h59.33v-7.56Zm-59.31-5.86c.87-12.86,9.55-26,23.29-26,14,0,19.42,13,19.94,26Z" transform="translate(-37 -157.28)"/><path class="cls-2" d="M426.36,192V242.8a31.6,31.6,0,0,0-25.33-12c-24.44,0-37.9,16.91-37.9,47.61,0,29.37,14.52,47.61,37.9,47.61,11.07,0,19.39-3.79,25.33-11.42V324h15V192ZM402.73,312.65c-20.56,0-23.63-21.42-23.63-34.19s3.07-34.2,23.63-34.2c18.65,0,23.63,21.49,23.63,34.2s-5,34.19-23.63,34.19Z" transform="translate(-37 -157.28)"/><path class="cls-2" d="M540.82,324l-.34-2.4c-.83-5.82-.83-10.9-.83-17.94V265.33c0-23.85-10.06-34.49-32.61-34.49-7.74,0-19.37,2.71-26.49,6.18l-1.18.58v15.56l3.24-2.07A44,44,0,0,1,507,244.26c12.55,0,17.66,5.86,17.66,20.22v2.33c-19.45,0-55.56,0-55.56,32.61,0,4.45,1.48,26.65,30.74,26.65,8.56,0,19.26-3.72,25.84-11.62V324ZM524.7,283.4c0,13.62-2.68,29.25-23.63,29.25-7.28,0-16-2.35-16-13.57,0-16.57,18.56-18.86,38.62-18.86h1v3.18Z" transform="translate(-37 -157.28)"/><path class="cls-2" d="M567.3,278.45c0,23.7,13.51,47.61,43.69,47.61,8.34,0,15.44-.54,23-3.18l1.57-.55-1.46-14.41-2.55.94c-7.11,2.62-12.93,3.79-18.87,3.79-17.32,0-29.42-14.06-29.42-34.19,0-21.09,11.73-34.2,30.62-34.2,5.07,0,11.69,1.59,17.72,4.25l2.71,1.19,1.23-14.82-1.57-.52a67,67,0,0,0-21.63-3.52c-26.53,0-45.06,19.58-45.06,47.61Z" transform="translate(-37 -157.28)"/><path class="cls-2" d="M669.22,212.53v20.35h-17V246.3h17V295c0,14.57,0,31.08,21.88,31.08A41.19,41.19,0,0,0,705,323.53l1.44-.57-1-13.23-2.64,1a22.77,22.77,0,0,1-9.12,1.9c-2.35,0-9.48,0-9.48-12.21V246.3h19.77V232.89H684.17V207.31l-15,5.22Z" transform="translate(-37 -157.28)"/><path class="cls-2" d="M796.81,324l-.34-2.4c-.83-5.82-.83-10.9-.83-17.94V265.33c0-23.85-10.06-34.49-32.61-34.49-7.74,0-19.37,2.71-26.49,6.18l-1.18.58v15.56l3.24-2.07A44,44,0,0,1,763,244.26c12.55,0,17.66,5.86,17.66,20.22v2.33c-19.45,0-55.56,0-55.56,32.61,0,4.45,1.48,26.65,30.74,26.65,8.56,0,19.26-3.72,25.84-11.62V324ZM780.68,283.4c0,13.62-2.68,29.25-23.63,29.25-7.28,0-16-2.35-16-13.57,0-16.57,18.56-18.86,38.63-18.86h1v3.18Z" transform="translate(-37 -157.28)"/><polygon class="cls-3" points="691.64 205.23 767.34 205.23 767.34 280.92 691.64 280.92 691.64 205.23 691.64 205.23"/><polygon class="cls-4" points="755.78 234.83 736.98 234.83 736.98 216.79 721.57 216.79 721.57 234.83 703.2 234.83 703.2 250.24 721.57 250.24 721.57 269.36 736.98 269.36 736.98 250.24 755.78 250.24 755.78 234.83 755.78 234.83"/><path class="cls-2" d="M42.25,438.51H47V390.93h-4.7v47.58Zm15.61,0h4.29V419.28c0-5.79,2.45-12.68,10.29-12.68,5.93,0,8.25,4.23,8.25,10.77v21.13H85V416.29c0-7.64-3.27-13.36-11.86-13.36-7.23,0-9.82,3.89-11.25,7h-.14v-6.2H57.59c.27,2.79.27,5.52.27,8.18v26.59Zm53.24-34.77h-7.91v-9.88l-4.29,1.5v8.38H92.08v3.68H98.9v20.32c0,6.34.27,11.59,7.91,11.59a15.69,15.69,0,0,0,5.25-1l-.27-3.55a10,10,0,0,1-4,.82c-3.48,0-4.64-2.59-4.64-5.73v-22.5h7.91v-3.68Zm31.36,29.31a22.35,22.35,0,0,1-9.75,2.59c-7.5,0-11.45-5.93-11.45-13.29h23.79v-2.18c0-9.34-4-17.25-13.84-17.25-8.79,0-14.66,7.57-14.66,18.2,0,10.43,4.3,18.2,15.82,18.2a28.5,28.5,0,0,0,10.09-1.91v-4.36Zm-21.2-14.38c0-5.73,3.89-12.07,10.23-12.07s8.86,6,8.86,12.07Zm32.31,19.84h4.3V421.33c0-6.27,1.84-13.91,8.66-13.91a11.27,11.27,0,0,1,3.14.41v-4.5a12.79,12.79,0,0,0-3-.41c-4.43,0-7.36,3.61-8.93,7.5h-.14v-6.68h-4.3a62.42,62.42,0,0,1,.27,7.77v27Zm24.26,0h4.29V419.28c0-5.79,2.46-12.68,10.29-12.68,5.93,0,8.25,4.23,8.25,10.77v21.13H205V416.29c0-7.64-3.27-13.36-11.86-13.36-7.23,0-9.82,3.89-11.25,7h-.14v-6.2h-4.16c.27,2.79.27,5.52.27,8.18v26.59Zm58.22,0h4.23a49.4,49.4,0,0,1-.34-7.29V415.88c0-9.07-3.61-13-12.2-13a27.39,27.39,0,0,0-10.23,2.39v4.16a18.46,18.46,0,0,1,10.23-2.86c5.79,0,7.91,3,7.91,8.93v1.77h-.82c-9,0-21.41.55-21.41,12.2,0,3.14,1.57,9.82,11.45,9.82,4.29,0,9.14-2.25,11-6.41H236v5.59Zm-.41-15.41c0,3.75-.21,12.54-10.29,12.54-4,0-7.23-1.71-7.23-6.27,0-7.63,8.86-8.38,16.29-8.38h1.23v2.11Zm29.86-19.36h-7.91v-9.88l-4.29,1.5v8.38h-6.82v3.68h6.82v20.32c0,6.34.27,11.59,7.91,11.59a15.68,15.68,0,0,0,5.25-1l-.27-3.55a10,10,0,0,1-4,.82c-3.48,0-4.64-2.59-4.64-5.73v-22.5h7.91v-3.68Zm8,34.77h4.29V403.74h-4.29v34.77Zm4.29-49.77h-4.29v5.73h4.29v-5.73Zm8.52,32.38c0,9.48,5,18.2,16.23,18.2s16.23-8.73,16.23-18.2-5-18.2-16.23-18.2-16.23,8.73-16.23,18.2Zm4.7,0c0-8,4-14.52,11.52-14.52s11.52,6.48,11.52,14.52-4,14.52-11.52,14.52-11.52-6.48-11.52-14.52Zm36.2,17.38h4.3V419.28c0-5.79,2.45-12.68,10.29-12.68,5.93,0,8.25,4.23,8.25,10.77v21.13h4.3V416.29c0-7.64-3.27-13.36-11.86-13.36-7.23,0-9.82,3.89-11.25,7h-.14v-6.2H327c.27,2.79.27,5.52.27,8.18v26.59Zm58.22,0h4.23a49.4,49.4,0,0,1-.34-7.29V415.88c0-9.07-3.61-13-12.2-13a27.39,27.39,0,0,0-10.23,2.39v4.16a18.46,18.46,0,0,1,10.23-2.86c5.79,0,7.91,3,7.91,8.93v1.77h-.82c-9,0-21.41.55-21.41,12.2,0,3.14,1.57,9.82,11.45,9.82,4.3,0,9.14-2.25,11-6.41h.14v5.59Zm-.41-15.41c0,3.75-.2,12.54-10.29,12.54-4,0-7.23-1.71-7.23-6.27,0-7.63,8.86-8.38,16.29-8.38h1.23v2.11Zm14.86,15.41h4.29V387.38h-4.29v51.13Z" transform="translate(-37 -157.28)"/></svg>