<?xml version="1.0" standalone="no"?>
<!DOCTYPE svg PUBLIC "-//W3C//DTD SVG 20010904//EN"
 "http://www.w3.org/TR/2001/REC-SVG-20010904/DTD/svg10.dtd">
<svg version="1.0" xmlns="http://www.w3.org/2000/svg"
 width="700.000000pt" height="700.000000pt" viewBox="0 0 700.000000 700.000000"
 preserveAspectRatio="xMidYMid meet">
<metadata>
Created by potrace 1.14, written by Peter Selinger 2001-2017
</metadata>
<g transform="translate(0.000000,700.000000) scale(0.100000,-0.100000)"
fill="#000000" stroke="none">
<path d="M4093 4885 c-265 -48 -468 -221 -586 -500 l-26 -60 -3 245 -3 245
-347 3 -348 2 0 -1195 0 -1195 350 0 350 0 0 648 c0 514 3 667 15 743 42 281
183 444 413 479 191 30 373 -61 447 -223 60 -132 59 -106 63 -909 l3 -738 349
0 349 0 3 718 c4 797 1 761 74 910 87 179 274 274 477 242 145 -22 233 -87
292 -213 64 -137 65 -148 65 -942 l0 -715 356 0 355 0 -4 833 c-3 796 -4 836
-24 927 -104 475 -376 708 -829 710 -374 1 -635 -164 -794 -502 l-37 -79 -27
74 c-76 208 -233 376 -423 452 -132 53 -346 70 -510 40z"/>
<path d="M1058 4849 c-395 -58 -719 -318 -872 -700 -145 -361 -134 -793 29
-1145 77 -168 227 -353 375 -465 156 -118 382 -202 583 -217 457 -35 836 167
1077 574 l41 69 -4 -230 c-4 -196 -8 -243 -27 -315 -42 -162 -134 -326 -234
-418 -199 -184 -503 -269 -865 -242 -308 23 -550 114 -761 285 -38 30 -71 55
-74 55 -4 0 -6 -58 -6 -129 l0 -129 47 -42 c96 -84 274 -176 433 -223 182 -54
239 -62 485 -62 205 0 241 3 334 23 429 96 732 354 855 727 64 194 60 108 63
1388 l4 1168 -123 -3 -123 -3 -3 -325 -2 -325 -46 85 c-176 329 -474 541 -834
596 -102 15 -260 17 -352 3z m517 -248 c339 -90 585 -348 687 -719 18 -66 21
-105 22 -272 0 -180 -2 -203 -27 -293 -50 -187 -146 -358 -271 -483 -201 -200
-469 -295 -751 -264 -273 29 -488 142 -646 337 -106 133 -180 297 -215 479
-22 117 -22 330 0 445 80 422 367 718 763 789 89 16 349 5 438 -19z"/>
<path d="M5525 1993 c-886 -11 -1763 -85 -2575 -219 -250 -41 -277 -47 -297
-69 -27 -31 -39 -89 -25 -120 6 -13 23 -32 38 -41 25 -17 31 -17 128 -1 758
132 1412 205 2226 249 262 14 1406 18 1666 5 l162 -8 31 27 c43 36 44 91 2
127 -41 34 -72 36 -991 50 -96 1 -260 2 -365 0z"/>
</g>
</svg>
