<svg version="1.1" id="Ebene_1" xmlns="http://www.w3.org/2000/svg" x="0" y="0" viewBox="0 0 100 100" style="enable-background:new 0 0 100 100" xml:space="preserve"><style>.st0{fill:#11a4de}@media (prefers-color-scheme:dark){.st0{fill:#fff}}</style><g id="Ebene_2_1_"><g id="Ebene_1-2"><path class="st0" d="M54.9 64.1c-3.3 0-6.7-2.2-9-3.7-2.1-1.6-4.6-2.5-7.2-2.5-2.7.1-5.3 1-7.4 2.6-2.7 1.6-5.3 3.6-10.4 3.6-8.7 0-13.6-5.9-13.6-14.2-.4-7.4 5.3-13.6 12.6-13.9h.7c4-.2 7.9 1.2 10.9 3.8l4-5.7c-4.2-3.5-9.4-5.3-14.9-5.2C9.3 28.8.1 37.8 0 49v.8C0 62.2 8.5 71 20.8 71c4.1 0 8.1-1.2 11.6-3.5 2-1.3 3.8-2.8 5.9-2.8 2.1 0 3.2.7 5.8 2.5C46.7 69 50.2 71 54.2 71S62 69.5 65 66.9l-3.9-5.1c-1.8 1.6-4 2.4-6.2 2.3z"/><path class="st0" d="m89.9 47.5-4.5-1.9c-3.6-1.5-5.8-2.5-5.8-5.2s2.5-4.9 7.2-4.9c2.9.1 5.8 1.1 8.1 3l3.8-5.3c-3.6-2.8-8-4.4-12.5-4.4-7.8 0-13.6 5.1-13.6 12 0 5.7 4.7 8.7 8.9 10.6l2.6 1.1c5.8 2.5 8.5 3.5 8.5 6.6 0 2.6-2.5 4.9-7.2 4.9-5.4 0-9.3-3.3-12.6-7.3-4.7-5.4-7.9-8.1-14.9-10-7.4-2.1-9.5-3.4-9.5-6.3 0-2.7 2.5-4.9 7.2-4.9 2.9.1 5.8 1.1 8.1 3l3.9-5.3c-3.6-2.8-8-4.4-12.5-4.4-7.8 0-13.6 5.1-13.6 12 0 7.9 7.3 10.5 13.4 12.2 6.1 1.7 9.1 3.5 13.4 9.3 4 5.5 10.4 8.6 17.1 8.6 8.7 0 14.6-4.5 14.6-11.9-.1-4.1-2.2-8.2-10.1-11.5z"/></g></g></svg>