<?xml version="1.0" standalone="no"?>
<!DOCTYPE svg PUBLIC "-//W3C//DTD SVG 20010904//EN"
 "http://www.w3.org/TR/2001/REC-SVG-20010904/DTD/svg10.dtd">
<svg version="1.0" xmlns="http://www.w3.org/2000/svg"
 width="122.000000pt" height="122.000000pt" viewBox="0 0 122.000000 122.000000"
 preserveAspectRatio="xMidYMid meet">
<metadata>
Created by potrace 1.11, written by Peter Selinger 2001-2013
</metadata>
<g transform="translate(0.000000,122.000000) scale(0.100000,-0.100000)"
fill="#000000" stroke="none">
<path d="M359 1213 c-7 -53 34 -390 55 -461 19 -63 17 -68 -37 -85 -29 -9
-105 -43 -171 -75 l-119 -59 79 -78 c80 -79 179 -165 211 -184 17 -9 15 -15
-19 -83 -51 -101 -79 -168 -70 -169 4 0 16 -2 27 -5 47 -9 253 -6 291 5 79 22
134 108 120 190 -4 29 0 40 28 72 19 20 40 53 47 72 10 27 19 37 43 41 172 33
301 219 274 394 -19 120 -81 203 -197 262 -83 41 -302 113 -411 135 -8 2 -33
7 -55 13 -79 20 -95 22 -96 15z"/>
</g>
</svg>
