<svg version="1.1" id="Layer_1" xmlns="http://www.w3.org/2000/svg" xmlns:xlink="http://www.w3.org/1999/xlink" x="0px" y="0px"
	 width="100%" viewBox="0 0 101 114" enable-background="new 0 0 101 114" xml:space="preserve">
<path fill="#9A0941" opacity="1.000000" stroke="none" 
	d="
M1.000000,6.468657 
	C7.802345,6.000000 14.604691,6.000000 21.853302,6.000000 
	C21.853302,19.986906 21.853302,33.713337 21.853302,47.716927 
	C36.686535,47.716927 51.073582,47.716927 65.911621,47.716927 
	C65.911621,33.953342 65.911621,20.227095 65.911621,6.253895 
	C73.084541,6.253895 79.809906,6.253895 87.000000,6.253895 
	C87.000000,10.839617 87.000000,15.288863 87.000000,19.738110 
	C87.000000,40.716854 87.000000,61.695602 87.000000,82.674347 
	C87.000000,94.431252 86.999992,94.431252 98.712799,95.256554 
	C98.712799,100.977066 98.712799,106.725777 98.712799,112.690735 
	C92.016815,114.996849 85.028809,114.889534 78.566483,112.641121 
	C69.620117,109.528427 66.686874,103.059921 66.082710,92.052208 
	C65.655533,84.269020 66.000023,76.443489 66.000023,68.319145 
	C51.387424,68.319145 36.999653,68.319145 22.161587,68.319145 
	C22.161587,82.972542 22.161587,97.698029 22.161587,113.000000 
	C15.129326,113.000000 8.533263,113.000000 1.468600,113.000000 
	C1.000000,77.645775 1.000000,42.291542 1.000000,6.468657 
z"/>
</svg>