<svg id="Layer_1" data-name="Layer 1" xmlns="http://www.w3.org/2000/svg" viewBox="0 0 508.13 96.52"><defs><style>.cls-1{fill:#d8321e;}.cls-2{fill:#545454;}</style></defs><title>kpt_logo_claim_d_rgb</title><path class="cls-1" d="M345.54,287.9V268.59H326.23v-19.3h-19.3V307.2h0a19.3,19.3,0,0,0,19.3,19.3h19.31V307.2H326.23V287.9Z" transform="translate(-166.07 -249.29)"/><rect class="cls-1" x="198.77" y="57.91" width="19.3" height="19.3"/><rect class="cls-1" x="198.77" y="19.3" width="19.3" height="19.3"/><path class="cls-1" d="M185.45,290.1l21.1-21.51h26.51l-28.34,27.28,29.07,30.63H206.64l-21.19-23.19V326.5H166.07V249.29h19.38Z" transform="translate(-166.07 -249.29)"/><path class="cls-1" d="M257.22,276h.21c3.49-5.66,10.06-8.33,16.42-8.33,16.2,0,27.43,14.21,27.43,30.52s-11.12,30.19-27.22,30.19c-6.25,0-12.71-2.33-16.84-7.32v24.74H237.94V268.59h19.28Zm-.64,22.08c0,7.22,4.56,12.77,12.39,12.77s12.4-5.55,12.4-12.77c0-7-4.56-12.87-12.4-12.87S256.58,291.1,256.58,298.09Z" transform="translate(-166.07 -249.29)"/><path class="cls-2" d="M427.91,291.48h-2.75v-2.26h-.06c-.91,1.84-3.05,2.65-5.35,2.65-5.15,0-7.7-4.08-7.7-8.8s2.52-8.71,7.64-8.71A6.41,6.41,0,0,1,425.1,277h.06v-8.61h2.75Zm-7.77-2c3.69,0,5.12-3.17,5.12-6.31,0-3.3-1.49-6.35-5.28-6.35s-5,3.21-5,6.48S416.58,289.44,420.14,289.44Z" transform="translate(-166.07 -249.29)"/><path class="cls-2" d="M435.88,271.73h-2.75v-3.36h2.75Zm-2.75,3h2.75v16.74h-2.75Z" transform="translate(-166.07 -249.29)"/><path class="cls-2" d="M455.24,286.17c-.74,3.69-3.4,5.7-7.15,5.7-5.34,0-7.87-3.69-8-8.8,0-5,3.3-8.71,7.87-8.71,5.92,0,7.74,5.53,7.57,9.58H443c-.09,2.91,1.56,5.5,5.22,5.5a4,4,0,0,0,4.34-3.27Zm-2.65-4.66a4.82,4.82,0,0,0-4.82-4.73,4.77,4.77,0,0,0-4.8,4.73Z" transform="translate(-166.07 -249.29)"/><path class="cls-2" d="M469.14,268.37h2.75v13.69l7.64-7.32h3.69l-6.63,6.09,7.12,10.65h-3.5l-5.73-8.74-2.59,2.4v6.34h-2.75Z" transform="translate(-166.07 -249.29)"/><path class="cls-2" d="M486.5,274.74h2.59v3.53h.06c1.33-2.68,3.18-4,6.15-3.91v2.91c-4.43,0-6.05,2.52-6.05,6.77v7.44H486.5Z" transform="translate(-166.07 -249.29)"/><path class="cls-2" d="M513,291.42a3.74,3.74,0,0,1-2,.45c-1.42,0-2.33-.77-2.33-2.59a7.42,7.42,0,0,1-5.89,2.59c-3,0-5.54-1.36-5.54-4.69,0-3.79,2.82-4.6,5.67-5.15,3-.58,5.63-.39,5.63-2.46,0-2.4-2-2.79-3.72-2.79-2.33,0-4.05.72-4.18,3.18h-2.75c.16-4.15,3.37-5.6,7.09-5.6,3,0,6.28.68,6.28,4.59v8.62c0,1.29,0,1.87.88,1.87a2.37,2.37,0,0,0,.84-.16Zm-4.47-8.58c-1.07.78-3.14.81-5,1.13s-3.36,1-3.36,3c0,1.82,1.55,2.46,3.23,2.46,3.63,0,5.12-2.26,5.12-3.78Z" transform="translate(-166.07 -249.29)"/><path class="cls-2" d="M516.39,274.74H519v2.66H519a5.84,5.84,0,0,1,5.44-3c4.41,0,5.77,2.52,5.77,6.12v11h-2.76V280.15a3.15,3.15,0,0,0-3.4-3.37c-3.33,0-5,2.24-5,5.25v9.45h-2.75Z" transform="translate(-166.07 -249.29)"/><path class="cls-2" d="M535.37,268.37h2.75v13.69l7.64-7.32h3.69l-6.64,6.09,7.13,10.65h-3.5l-5.73-8.74-2.59,2.4v6.34h-2.75Z" transform="translate(-166.07 -249.29)"/><path class="cls-2" d="M567.1,286.17c-.74,3.69-3.4,5.7-7.16,5.7-5.34,0-7.86-3.69-8-8.8,0-5,3.31-8.71,7.87-8.71,5.93,0,7.74,5.53,7.58,9.58H554.83c-.1,2.91,1.55,5.5,5.21,5.5a4,4,0,0,0,4.34-3.27Zm-2.65-4.66a4.83,4.83,0,0,0-4.83-4.73,4.77,4.77,0,0,0-4.79,4.73Z" transform="translate(-166.07 -249.29)"/><path class="cls-2" d="M571,274.74h2.59v2.66h.07a5.82,5.82,0,0,1,5.44-3c4.4,0,5.76,2.52,5.76,6.12v11h-2.75V280.15a3.16,3.16,0,0,0-3.4-3.37c-3.34,0-5,2.24-5,5.25v9.45H571Z" transform="translate(-166.07 -249.29)"/><path class="cls-2" d="M590,268.37h2.75v13.69l7.64-7.32h3.69l-6.63,6.09,7.12,10.65h-3.5l-5.73-8.74-2.59,2.4v6.34H590Z" transform="translate(-166.07 -249.29)"/><path class="cls-2" d="M622.28,291.42a3.7,3.7,0,0,1-2,.45c-1.43,0-2.33-.77-2.33-2.59a7.46,7.46,0,0,1-5.9,2.59c-3,0-5.53-1.36-5.53-4.69,0-3.79,2.81-4.6,5.66-5.15,3-.58,5.64-.39,5.64-2.46,0-2.4-2-2.79-3.73-2.79-2.33,0-4,.72-4.17,3.18h-2.76c.17-4.15,3.37-5.6,7.1-5.6,3,0,6.28.68,6.28,4.59v8.62c0,1.29,0,1.87.87,1.87a2.3,2.3,0,0,0,.84-.16Zm-4.47-8.58c-1.06.78-3.14.81-5,1.13s-3.37,1-3.37,3c0,1.82,1.55,2.46,3.24,2.46,3.62,0,5.11-2.26,5.11-3.78Z" transform="translate(-166.07 -249.29)"/><path class="cls-2" d="M627.34,286.21c.09,2.46,2.23,3.23,4.5,3.23,1.71,0,4-.38,4-2.49s-2.72-2.49-5.47-3.11-5.47-1.52-5.47-4.72c0-3.37,3.34-4.76,6.25-4.76,3.69,0,6.64,1.16,6.86,5.24H635.3c-.19-2.14-2.07-2.82-3.88-2.82-1.65,0-3.56.46-3.56,2.14,0,2,2.91,2.3,5.47,2.92,2.75.61,5.47,1.52,5.47,4.75,0,4-3.73,5.28-7.12,5.28-3.76,0-6.93-1.52-7.1-5.66Z" transform="translate(-166.07 -249.29)"/><path class="cls-2" d="M644.34,286.21c.1,2.46,2.23,3.23,4.5,3.23,1.71,0,4-.38,4-2.49s-2.72-2.49-5.48-3.11-5.47-1.52-5.47-4.72c0-3.37,3.34-4.76,6.25-4.76,3.69,0,6.64,1.16,6.87,5.24H652.3c-.19-2.14-2.07-2.82-3.88-2.82-1.65,0-3.56.46-3.56,2.14,0,2,2.91,2.3,5.47,2.92,2.75.61,5.47,1.52,5.47,4.75,0,4-3.72,5.28-7.12,5.28-3.76,0-6.93-1.52-7.09-5.66Z" transform="translate(-166.07 -249.29)"/><path class="cls-2" d="M673.94,286.17c-.75,3.69-3.4,5.7-7.16,5.7-5.34,0-7.87-3.69-8-8.8,0-5,3.3-8.71,7.87-8.71,5.92,0,7.74,5.53,7.58,9.58H661.66c-.09,2.91,1.56,5.5,5.22,5.5a4,4,0,0,0,4.34-3.27Zm-2.66-4.66a4.81,4.81,0,0,0-9.62,0Z" transform="translate(-166.07 -249.29)"/><path class="cls-2" d="M413,309.58h2.59V312h.07a6.17,6.17,0,0,1,5.41-2.85c2,0,3.91.81,4.59,2.85a6.21,6.21,0,0,1,5.25-2.85c3.33,0,5.57,1.39,5.57,4.86v12.27h-2.75v-11c0-2.07-.55-3.72-3.24-3.72a4.05,4.05,0,0,0-4.37,4.28v10.42h-2.76v-11c0-2.16-.68-3.72-3.14-3.72a4.51,4.51,0,0,0-4.46,4.28v10.42H413Z" transform="translate(-166.07 -249.29)"/><path class="cls-2" d="M444.3,306.57h-2.75V303.2h2.75Zm-2.75,3h2.75v16.74h-2.75Z" transform="translate(-166.07 -249.29)"/><path class="cls-2" d="M453.21,309.58h3.33V312h-3.33V322.4c0,1.27.35,1.49,2.07,1.49h1.26v2.43h-2.1c-2.85,0-4-.58-4-3.66V312H447.6v-2.43h2.85v-5h2.76Z" transform="translate(-166.07 -249.29)"/><path class="cls-2" d="M485.17,326.32h-2.75v-2.27h-.07c-.91,1.85-3,2.66-5.34,2.66-5.15,0-7.71-4.08-7.71-8.81s2.53-8.71,7.64-8.71a6.41,6.41,0,0,1,5.41,2.63h.07V303.2h2.75Zm-7.77-2c3.69,0,5.11-3.17,5.11-6.31,0-3.3-1.49-6.35-5.28-6.35s-5,3.21-5,6.48S473.83,324.28,477.4,324.28Z" transform="translate(-166.07 -249.29)"/><path class="cls-2" d="M504.5,321c-.74,3.69-3.4,5.7-7.15,5.7-5.35,0-7.87-3.69-8-8.81,0-5,3.3-8.71,7.86-8.71,5.93,0,7.74,5.54,7.58,9.59H492.23c-.1,2.91,1.55,5.5,5.21,5.5a4,4,0,0,0,4.34-3.27Zm-2.65-4.66a4.83,4.83,0,0,0-4.83-4.73,4.77,4.77,0,0,0-4.79,4.73Z" transform="translate(-166.07 -249.29)"/><path class="cls-2" d="M508.42,309.58H511V312h.07a6.16,6.16,0,0,1,5.4-2.85c2,0,3.92.81,4.6,2.85a6.2,6.2,0,0,1,5.25-2.85c3.33,0,5.57,1.39,5.57,4.86v12.27h-2.76v-11c0-2.07-.55-3.72-3.23-3.72a4.05,4.05,0,0,0-4.37,4.28v10.42h-2.76v-11c0-2.16-.68-3.72-3.14-3.72a4.52,4.52,0,0,0-4.47,4.28v10.42h-2.75Z" transform="translate(-166.07 -249.29)"/><path class="cls-2" d="M546.76,309.58h2.76v2.27h.06c.91-1.85,3-2.66,5.34-2.66,5.15,0,7.71,4.08,7.71,8.81s-2.52,8.71-7.64,8.71a6.42,6.42,0,0,1-5.41-2.62h-.06v8.64h-2.76Zm7.78,2c-3.7,0-5.12,3.17-5.12,6.32,0,3.3,1.49,6.34,5.28,6.34s5-3.2,5-6.47S558.1,311.62,554.54,311.62Z" transform="translate(-166.07 -249.29)"/><path class="cls-2" d="M566.84,303.2h2.76v23.12h-2.76Z" transform="translate(-166.07 -249.29)"/><path class="cls-2" d="M588.54,326.32H586v-2.65h-.07a5.82,5.82,0,0,1-5.44,3c-4.4,0-5.76-2.53-5.76-6.12v-11h2.75v11.33a3.16,3.16,0,0,0,3.4,3.37c3.34,0,5-2.23,5-5.24v-9.46h2.75Z" transform="translate(-166.07 -249.29)"/><path class="cls-2" d="M595.18,321c.1,2.46,2.23,3.24,4.5,3.24,1.71,0,4.05-.39,4.05-2.49s-2.72-2.5-5.48-3.11-5.47-1.52-5.47-4.73c0-3.37,3.34-4.76,6.25-4.76,3.69,0,6.64,1.17,6.87,5.25h-2.76c-.19-2.14-2.07-2.82-3.88-2.82-1.65,0-3.56.45-3.56,2.14,0,2,2.91,2.3,5.47,2.91,2.75.62,5.47,1.52,5.47,4.76,0,4-3.72,5.28-7.12,5.28-3.76,0-6.93-1.52-7.09-5.67Z" transform="translate(-166.07 -249.29)"/><path class="cls-1" d="M345.54,287.9V268.59H326.23v-19.3h-19.3V307.2h0a19.3,19.3,0,0,0,19.3,19.3h19.31V307.2H326.23V287.9Z" transform="translate(-166.07 -249.29)"/><rect class="cls-1" x="198.77" y="57.91" width="19.3" height="19.3"/><rect class="cls-1" x="198.77" y="19.3" width="19.3" height="19.3"/><path class="cls-1" d="M185.45,290.1l21.1-21.51h26.51l-28.34,27.28,29.07,30.63H206.64l-21.19-23.19V326.5H166.07V249.29h19.38Z" transform="translate(-166.07 -249.29)"/><path class="cls-1" d="M257.22,276h.21c3.49-5.66,10.06-8.33,16.42-8.33,16.2,0,27.43,14.21,27.43,30.52s-11.12,30.19-27.22,30.19c-6.25,0-12.71-2.33-16.84-7.32v24.74H237.94V268.59h19.28Zm-.64,22.08c0,7.22,4.56,12.77,12.39,12.77s12.4-5.55,12.4-12.77c0-7-4.56-12.87-12.4-12.87S256.58,291.1,256.58,298.09Z" transform="translate(-166.07 -249.29)"/></svg>