<?xml version="1.0" standalone="no"?>
<!DOCTYPE svg PUBLIC "-//W3C//DTD SVG 20010904//EN"
 "http://www.w3.org/TR/2001/REC-SVG-20010904/DTD/svg10.dtd">
<svg version="1.0" xmlns="http://www.w3.org/2000/svg"
 width="260.000000pt" height="260.000000pt" viewBox="0 0 260.000000 260.000000"
 preserveAspectRatio="xMidYMid meet">
<metadata>
Created by potrace 1.14, written by Peter Selinger 2001-2017
</metadata>
<g transform="translate(0.000000,260.000000) scale(0.100000,-0.100000)"
fill="#000000" stroke="none">
<path d="M1174 2594 c8 -16 -36 -26 -46 -11 -5 9 -10 9 -20 -1 -6 -6 -27 -12
-44 -12 -18 0 -36 -5 -40 -12 -5 -7 -3 -8 6 -3 9 6 11 4 5 -5 -6 -10 -11 -9
-22 5 -10 14 -13 15 -13 4 0 -10 -9 -14 -27 -13 -35 1 -55 -5 -47 -17 3 -5 -2
-6 -10 -3 -9 3 -16 2 -16 -4 0 -6 -8 -9 -17 -8 -10 2 -24 -3 -31 -11 -12 -11
-17 -11 -30 -1 -9 8 -13 8 -9 2 8 -13 -19 -27 -34 -18 -5 3 -9 -2 -9 -10 0
-10 -7 -13 -20 -11 -13 2 -18 0 -14 -7 4 -6 1 -9 -7 -6 -8 3 -20 -2 -28 -9 -7
-8 -20 -12 -27 -9 -8 3 -11 0 -8 -8 3 -7 -2 -16 -11 -20 -11 -4 -14 -2 -9 7 5
8 2 8 -9 -2 -9 -7 -15 -17 -12 -21 3 -4 -3 -7 -13 -6 -9 0 -16 -4 -15 -11 2
-7 -4 -10 -12 -7 -8 4 -17 -1 -21 -10 -3 -9 -18 -16 -33 -16 -20 0 -23 -2 -11
-10 14 -9 13 -11 -10 -14 -5 0 -17 -11 -25 -23 -9 -13 -22 -23 -28 -23 -7 0
-6 4 3 11 13 9 13 10 0 6 -8 -2 -16 -9 -16 -15 -1 -7 -2 -16 -3 -22 0 -5 -8
-10 -17 -10 -8 0 -12 -5 -9 -10 4 -6 3 -10 -2 -9 -18 3 -36 -1 -30 -7 6 -7
-16 -34 -28 -34 -9 0 -44 -42 -45 -53 0 -5 5 -5 12 -1 7 4 8 3 4 -5 -4 -6 -12
-9 -17 -5 -6 3 -13 -3 -16 -15 -3 -11 -9 -19 -13 -16 -4 3 -10 -5 -13 -16 -3
-12 -10 -18 -16 -14 -6 3 -9 0 -5 -8 3 -8 -2 -17 -11 -21 -10 -3 -15 -12 -11
-21 3 -9 0 -15 -9 -15 -8 0 -14 -6 -12 -12 1 -7 -4 -12 -11 -10 -8 1 -11 -2
-8 -7 8 -13 -4 -42 -15 -35 -5 3 -6 -1 -3 -9 3 -8 -2 -21 -10 -30 -8 -8 -12
-17 -9 -21 4 -3 1 -6 -6 -6 -9 0 -12 -9 -9 -25 3 -14 1 -23 -6 -22 -6 1 -10
-6 -10 -15 1 -10 -3 -15 -8 -12 -5 3 -8 -2 -6 -12 2 -11 -2 -18 -10 -16 -10 2
-10 -2 -1 -19 9 -17 8 -20 -2 -14 -9 6 -11 3 -6 -9 4 -10 3 -15 -3 -11 -6 3
-10 2 -10 -4 0 -5 -3 -17 -7 -27 -4 -12 -3 -15 5 -10 9 6 9 1 1 -18 -7 -14
-16 -23 -20 -20 -5 3 -6 -1 -3 -9 3 -8 0 -18 -6 -22 -8 -5 -7 -11 2 -23 11
-14 10 -15 -7 -9 -20 7 -20 7 -1 -8 12 -9 15 -15 7 -15 -11 0 -11 -3 -1 -15
10 -12 8 -16 -11 -24 -13 -5 -18 -10 -10 -10 9 -1 10 -5 4 -13 -16 -21 -17
-306 -1 -326 10 -12 10 -14 1 -8 -7 4 -13 2 -13 -3 0 -6 6 -11 13 -11 9 0 8
-3 -2 -9 -9 -6 -10 -10 -2 -12 7 -3 14 -13 16 -24 2 -11 4 -22 5 -25 6 -15 4
-36 -5 -42 -6 -5 -5 -8 4 -8 11 0 11 -3 0 -17 -10 -11 -10 -14 -1 -9 7 4 13 2
14 -6 0 -7 2 -17 3 -23 2 -5 3 -16 4 -23 0 -7 6 -10 13 -6 7 4 8 3 4 -4 -4 -7
-4 -18 1 -24 4 -7 9 -24 11 -38 2 -13 9 -28 15 -32 7 -4 8 -8 2 -8 -5 0 -3 -5
5 -10 13 -8 13 -10 0 -10 -10 0 -7 -5 7 -15 13 -9 20 -22 16 -31 -3 -8 3 -22
13 -30 11 -9 13 -13 7 -9 -9 4 -11 1 -7 -9 3 -9 12 -16 19 -16 9 0 11 -8 7
-22 -4 -16 -2 -19 8 -13 10 6 12 3 8 -13 -4 -15 -2 -20 11 -17 10 2 18 -3 18
-10 0 -8 -5 -12 -11 -9 -6 3 -4 0 4 -8 8 -7 21 -25 29 -40 8 -15 19 -24 24
-21 6 4 8 0 4 -10 -4 -11 -1 -17 8 -17 8 0 15 -7 15 -15 0 -9 7 -18 15 -21 8
-4 12 -10 9 -15 -3 -5 2 -9 10 -9 9 0 16 -9 16 -20 0 -13 7 -20 20 -20 11 0
19 -5 18 -12 -2 -7 2 -12 9 -13 7 0 18 -6 25 -14 11 -12 10 -13 -2 -6 -8 4 -3
-4 12 -17 15 -14 24 -28 20 -32 -4 -4 -2 -7 3 -6 22 5 45 -1 45 -11 0 -5 -5
-7 -12 -3 -7 4 -8 3 -4 -5 4 -6 12 -9 17 -6 5 4 9 2 9 -3 0 -4 15 -19 33 -32
26 -19 29 -20 17 -4 -14 19 -14 19 7 0 13 -10 20 -23 16 -29 -4 -6 4 -8 20 -5
20 4 24 2 19 -11 -5 -14 -4 -14 14 -1 10 8 16 10 12 6 -9 -11 31 -48 43 -40 5
3 9 0 9 -5 0 -6 7 -11 16 -11 9 0 12 -5 8 -12 -5 -8 0 -7 11 2 10 8 16 11 13
5 -3 -5 5 -18 19 -29 l25 -18 -12 23 c-11 22 -10 22 14 -3 26 -27 43 -37 32
-19 -4 5 3 7 14 4 18 -5 24 -15 21 -35 0 -5 3 -8 9 -8 5 0 10 7 10 15 0 8 5
15 11 15 6 0 9 -7 6 -14 -4 -11 -1 -13 10 -9 10 4 14 2 10 -4 -4 -6 8 -9 28
-8 18 0 33 -2 33 -5 -1 -18 4 -21 17 -10 13 11 18 10 30 -6 14 -19 14 -19 15
1 0 16 2 17 9 6 5 -8 16 -11 25 -8 8 3 18 1 22 -5 4 -6 3 -8 -2 -5 -6 3 -16 2
-24 -4 -10 -5 72 -9 218 -9 148 0 232 4 232 10 0 6 5 10 11 10 5 0 8 -4 5 -8
-2 -4 6 -8 19 -8 13 0 21 4 19 8 -3 5 -10 5 -16 2 -7 -4 -8 -2 -4 4 5 8 15 8
32 2 19 -7 23 -7 18 2 -5 7 -2 9 9 5 9 -3 17 -1 20 6 2 6 18 10 35 9 18 -1 32
3 32 8 0 6 -5 8 -12 4 -7 -4 -8 -3 -4 5 6 9 11 9 22 0 11 -9 14 -8 14 2 0 11
2 11 10 -1 7 -11 10 -12 10 -2 0 8 6 12 13 9 6 -2 22 5 35 17 20 17 24 18 32
6 8 -13 10 -12 10 3 0 10 5 15 10 12 6 -3 10 -1 10 5 0 7 7 9 16 6 8 -3 12 -2
9 4 -3 6 3 10 15 10 12 0 19 4 15 9 -3 5 0 13 6 17 8 4 9 3 5 -4 -4 -7 -2 -12
3 -12 6 0 11 4 11 10 0 5 7 6 17 3 11 -4 14 -3 9 5 -5 8 0 12 13 12 11 0 25 8
30 17 6 10 11 15 11 11 0 -4 12 4 26 17 15 14 33 25 40 25 7 0 15 9 19 19 4
13 13 18 25 16 11 -2 23 1 26 7 5 7 2 8 -7 3 -12 -8 -12 -6 -1 8 8 9 17 16 20
15 20 -2 25 4 12 13 -12 9 -10 10 8 6 13 -3 22 -3 19 0 -4 3 9 20 28 38 19 17
31 36 27 40 -4 4 2 6 13 3 18 -4 21 -1 19 23 -1 16 2 26 7 23 5 -3 6 -10 3
-16 -4 -7 -2 -8 5 -4 6 4 9 11 6 16 -3 5 5 17 18 27 23 18 27 24 27 43 0 6 7
10 16 10 8 0 12 5 9 10 -3 6 0 13 8 16 9 3 18 17 21 30 4 16 11 22 19 17 7 -4
7 0 -2 10 -12 15 -12 17 3 11 13 -5 16 0 16 27 0 26 3 30 10 19 8 -13 10 -13
10 2 0 9 6 19 13 21 9 4 8 6 -2 6 -9 1 -6 8 9 21 15 13 18 20 9 20 -12 0 -12
2 0 9 8 5 10 14 6 21 -5 9 -4 11 3 6 8 -5 12 1 12 14 0 12 4 19 9 15 5 -3 13
0 17 6 4 7 3 9 -3 6 -7 -4 -10 5 -8 26 2 20 8 32 17 31 10 -1 14 8 13 27 -1
16 3 29 9 29 6 0 4 5 -4 10 -11 7 -11 10 -2 10 7 0 10 5 7 11 -4 6 0 16 8 22
14 10 16 51 14 302 -2 252 -4 290 -17 287 -8 -2 -12 0 -8 4 4 4 2 14 -5 22
-10 13 -9 14 1 8 10 -6 11 -1 6 21 -4 15 -7 32 -8 38 0 5 -6 15 -13 23 -7 7
-9 20 -6 29 5 12 3 14 -8 8 -11 -7 -11 -5 1 10 9 11 10 16 3 11 -9 -5 -13 0
-13 13 0 12 -5 21 -11 21 -6 0 -9 11 -7 24 2 15 -6 34 -19 48 -12 13 -23 28
-25 33 -2 6 -6 9 -9 8 -3 -1 -5 9 -3 22 1 14 -3 23 -9 22 -6 -1 -12 4 -13 11
-1 6 -2 17 -3 23 0 5 -5 7 -11 4 -5 -3 -10 1 -10 9 0 9 -6 16 -12 16 -9 0 -8
4 2 10 13 8 12 10 -3 10 -10 0 -16 3 -14 8 7 10 -19 32 -27 24 -4 -3 -4 1 0
11 3 10 1 17 -6 17 -6 0 -8 5 -4 13 5 8 2 7 -9 -2 -15 -12 -17 -12 -12 2 4 8
1 18 -5 22 -9 6 -9 10 1 17 10 6 7 7 -8 3 -19 -5 -23 -2 -23 14 0 19 -10 26
-32 22 -8 -1 -12 15 -9 32 1 5 -2 7 -6 5 -10 -5 -53 39 -45 46 5 6 -23 10 -41
7 -5 -1 -5 8 -2 20 6 19 5 20 -14 9 -12 -6 -21 -7 -20 -3 4 21 -2 33 -16 33
-8 0 -15 5 -15 11 0 5 -4 7 -10 4 -5 -3 -10 1 -10 10 0 9 -4 13 -10 10 -5 -3
-10 -1 -10 5 0 7 -7 9 -17 6 -10 -4 -14 -4 -10 0 11 11 -31 36 -46 28 -9 -6
-9 -4 1 8 11 14 10 16 -7 11 -13 -3 -21 -1 -21 6 0 7 -4 9 -10 6 -5 -3 -10 -1
-10 5 0 7 -7 10 -15 7 -8 -4 -17 -2 -20 4 -4 5 -11 6 -17 3 -6 -4 -8 -2 -4 4
3 6 2 13 -4 17 -5 3 -10 0 -10 -7 0 -10 -3 -9 -9 2 -6 8 -8 17 -5 21 2 4 -6 5
-18 1 -16 -4 -19 -2 -13 9 8 12 6 12 -8 0 -9 -7 -17 -10 -17 -5 0 5 -11 14
-25 21 -19 8 -23 8 -18 0 3 -7 -2 -5 -13 4 -25 21 -57 33 -48 18 3 -6 -6 -3
-22 7 -15 11 -25 13 -21 7 10 -16 -5 -17 -21 -1 -9 9 -12 9 -12 0 0 -7 -5 -12
-10 -12 -7 0 -7 8 1 22 l12 22 -28 -18 c-15 -10 -24 -13 -21 -7 6 10 0 13 -20
10 -4 0 -11 5 -15 13 -7 10 -9 9 -9 -5 0 -17 -1 -17 -16 -3 -19 19 -26 20 -42
4 -8 -8 -12 -8 -12 -1 0 13 -48 14 -56 2 -7 -12 -24 -11 -24 2 0 5 5 7 12 3 6
-4 8 -3 5 3 -7 11 -43 10 -54 -2 -5 -4 -2 -5 6 0 10 5 12 4 7 -4 -4 -6 -13 -8
-19 -4 -20 12 -41 12 -56 0 -10 -8 -13 -8 -8 -1 4 7 -2 12 -18 12 -14 0 -22
-4 -19 -9 10 -16 -9 -9 -23 9 -8 9 -12 12 -9 6z m-814 -428 c0 -2 -8 -10 -17
-17 -16 -13 -17 -12 -4 4 13 16 21 21 21 13z m2121 -323 c13 -17 13 -17 -6 -3
-11 8 -22 16 -24 17 -2 2 0 3 6 3 6 0 17 -8 24 -17z m-1956 -1563 c3 -5 1 -10
-4 -10 -6 0 -11 5 -11 10 0 6 2 10 4 10 3 0 8 -4 11 -10z"/>
<path d="M60 879 c0 -5 5 -7 10 -4 6 3 10 8 10 11 0 2 -4 4 -10 4 -5 0 -10 -5
-10 -11z"/>
</g>
</svg>
