<?xml version="1.0" encoding="UTF-8" standalone="no"?>
<!DOCTYPE svg PUBLIC "-//W3C//DTD SVG 1.1//EN" "http://www.w3.org/Graphics/SVG/1.1/DTD/svg11.dtd">
<svg width="100%" height="100%" viewBox="0 0 32 32" version="1.1" xmlns="http://www.w3.org/2000/svg" xmlns:xlink="http://www.w3.org/1999/xlink" xml:space="preserve" xmlns:serif="http://www.serif.com/" style="fill-rule:evenodd;clip-rule:evenodd;stroke-linejoin:round;stroke-miterlimit:2;">
    <g transform="matrix(2.65548,0,0,2.45464,0.188345,0.0448179)">
        <path d="M11.98,1.285L11.98,11.715C11.98,12.434 11.44,13.018 10.775,13.018L1.134,13.018C0.469,13.018 -0.071,12.434 -0.071,11.715L-0.071,1.285C-0.071,0.566 0.469,-0.018 1.134,-0.018L10.775,-0.018C11.44,-0.018 11.98,0.566 11.98,1.285Z" style="fill:rgb(255,0,0);"/>
    </g>
    <g transform="matrix(2.04189,0,0,2.04189,3.64182,3.50151)">
        <path d="M5.235,0.022C3.846,0.142 2.318,0.572 0.622,1.323L0.175,1.522L0.222,1.657L0.271,1.793L0.433,1.748C1.768,1.376 2.931,1.178 4.585,1.037C5.256,0.981 6.905,0.986 7.684,1.049C8.596,1.121 9.546,1.255 10.367,1.426C10.708,1.496 11.52,1.695 11.733,1.76L11.848,1.795L11.878,1.718C11.958,1.529 11.958,1.526 11.78,1.447C9.951,0.607 8.297,0.134 6.777,0.022C6.4,-0.008 5.578,-0.006 5.235,0.022ZM0.568,2.563C0.568,2.574 1.373,4.754 2.356,7.411L4.143,12.242L7.988,12.242L9.775,7.412C10.758,4.754 11.562,2.574 11.562,2.563C11.562,2.553 10.812,2.548 9.897,2.551L8.229,2.558L7.223,5.985C6.885,7.139 6.544,8.293 6.201,9.446C6.189,9.477 6.187,9.477 6.173,9.446C6.166,9.428 5.707,7.87 5.158,5.985L4.156,2.558L2.362,2.551C1.375,2.548 0.568,2.553 0.568,2.562L0.568,2.563Z" style="fill:white;fill-rule:nonzero;"/>
    </g>
</svg>
