<svg xmlns="http://www.w3.org/2000/svg" width="512" height="512" fill="none"><circle cx="256" cy="256" r="256" fill="#F03241"/><path fill="#fff" fill-rule="evenodd" d="M256 96c8.858 0 16.048 7.184 16.048 16.048 0 8.857-7.19 16.048-16.048 16.048-70.528 0-127.904 57.376-127.904 127.904 0 70.528 57.376 127.905 127.904 127.905 70.528 0 127.905-57.377 127.905-127.905 0-8.866 7.181-16.048 16.047-16.048S416 247.134 416 256c0 88.222-71.778 160-160 160-88.228 0-160-71.778-160-160 0-88.23 71.772-160 160-160Zm0 60.542c54.843 0 99.457 44.613 99.457 99.457 0 54.843-44.614 99.457-99.457 99.457-8.864 0-16.048-7.182-16.048-16.048 0-8.863 7.184-16.047 16.048-16.047 37.141 0 67.363-30.221 67.363-67.362 0-37.141-30.222-67.362-67.363-67.362s-67.362 30.221-67.362 67.362c0 8.866-7.184 16.048-16.047 16.048-8.866 0-16.048-7.182-16.048-16.048 0-54.844 44.615-99.457 99.457-99.457Zm-.001 64.913c19.077 0 34.544 15.465 34.544 34.544 0 19.079-15.467 34.543-34.544 34.543-19.079 0-34.543-15.464-34.543-34.543s15.464-34.544 34.543-34.544Z" clip-rule="evenodd"/></svg>