<?xml version="1.0" encoding="UTF-8"?><svg id="Ebene_1" xmlns="http://www.w3.org/2000/svg" viewBox="0 0 512 512"><defs><style>.cls-1{fill:#01bba8;}.cls-1,.cls-2{stroke-width:0px;}.cls-2{fill:#fff;}</style></defs><rect class="cls-1" width="512" height="512" rx="100" ry="100"/><path class="cls-2" d="M293.39,231.84l-54.42-10.68c-26.96-5.59-40.69-22.89-40.69-44.76,0-26.96,26.45-50.35,62.05-50.35,38.17,0,62.44,22.32,71.37,51.76l52.74-15.14c-7.63-39.16-44.25-89.52-124.62-89.52-65.11,0-121.06,48.83-121.06,107.32,0,52.9,35.6,88,89.01,98.68l53.41,10.17c30.01,6.61,46.79,24.92,46.79,47.81,0,26.96-23.4,48.32-65.62,48.32-50.36,0-77.31-35.6-83.93-69.68l-54.93,15.77c5.59,50.36,49.85,107.32,138.86,107.32,79.86,0,126.14-51.88,126.14-106.31,0-49.34-33.06-88.5-95.12-100.71Z"/></svg>